<svg viewBox="0 0 2560 300" fill="none" preserveAspectRatio="none" xmlns="http://www.w3.org/2000/svg">
<g clip-path="url(#clip0_19_20)">
<path d="M1280 0H0V300H1280V0Z" fill="#021627"/>
<path d="M236 0L396 17L406 33L231 50L427 67L390 83L396 100L413 117V133L237 150L241 167L370 183L272 200L298 217L225 233L238 250L405 267L324 283L321 300H0V283V267V250V233V217V200V183V167V150V133V117V100V83V67V50V33V17V0H236Z" fill="#021627"/>
<path d="M247 0L296 17L241 33L374 50L220 67L299 83L323 100L337 117L233 133L304 150L225 167L219 183L273 200L305 217L278 233L237 250L261 267L286 283L341 300H0V283V267V250V233V217V200V183V167V150V133V117V100V83V67V50V33V17V0H247Z" fill="#083B53"/>
<path d="M220 0L198 17L183 33L247 50L236 67L176 83L223 100L157 117L289 133L210 150L197 167L164 183L207 200L193 217L303 233L150 250L264 267L297 283L305 300H0V283V267V250V233V217V200V183V167V150V133V117V100V83V67V50V33V17V0H220Z" fill="#046580"/>
<path d="M214 0L149 17L202 33L241 50L157 67L185 83L138 100L132 117L215 133L182 150L156 167L153 183L232 200L112 217L214 233L134 250L144 267L193 283L195 300H0V283V267V250V233V217V200V183V167V150V133V117V100V83V67V50V33V17V0H214Z" fill="#0093AA"/>
<path d="M166 0L72 17L114 33L153 50L122 67L124 83L119 100L134 117L163 133L110 150L150 167L100 183L159 200L93 217L106 233L126 250L97 267L171 283L111 300H0V283V267V250V233V217V200V183V167V150V133V117V100V83V67V50V33V17V0H166Z" fill="#00C4CA"/>
<path d="M72 0L89 17L77 33L49 50L83 67L72 83L115 100L47 117L32 133L86 150L34 167L35 183L32 200L59 217L31 233L110 250L86 267L38 283L52 300H0V283V267V250V233V217V200V183V167V150V133V117V100V83V67V50V33V17V0H72Z" fill="#0AF5DD"/>
</g>
<g clip-path="url(#clip1_19_20)">
<path d="M1280 300H2560V0H1280V300Z" fill="#021627"/>
<path d="M2324 300L2164 283L2154 267L2329 250L2133 233L2170 217L2164 200L2147 183V167L2323 150L2319 133L2190 117L2288 100L2262 83L2335 67L2322 50L2155 33L2236 17L2239 0H2560V17V33V50V67V83V100V117V133V150V167V183V200V217V233V250V267V283V300H2324Z" fill="#021627"/>
<path d="M2313 300L2264 283L2319 267L2186 250L2340 233L2261 217L2237 200L2223 183L2327 167L2256 150L2335 133L2341 117L2287 100L2255 83L2282 67L2323 50L2299 33L2274 17L2219 0H2560V17V33V50V67V83V100V117V133V150V167V183V200V217V233V250V267V283V300H2313Z" fill="#083B53"/>
<path d="M2340 300L2362 283L2377 267L2313 250L2324 233L2384 217L2337 200L2403 183L2271 167L2350 150L2363 133L2396 117L2353 100L2367 83L2257 67L2410 50L2296 33L2263 17L2255 0H2560V17V33V50V67V83V100V117V133V150V167V183V200V217V233V250V267V283V300H2340Z" fill="#046580"/>
<path d="M2346 300L2411 283L2358 267L2319 250L2403 233L2375 217L2422 200L2428 183L2345 167L2378 150L2404 133L2407 117L2328 100L2448 83L2346 67L2426 50L2416 33L2367 17L2365 0H2560V17V33V50V67V83V100V117V133V150V167V183V200V217V233V250V267V283V300H2346Z" fill="#0093AA"/>
<path d="M2394 300L2488 283L2446 267L2407 250L2438 233L2436 217L2441 200L2426 183L2397 167L2450 150L2410 133L2460 117L2401 100L2467 83L2454 67L2434 50L2463 33L2389 17L2449 0H2560V17V33V50V67V83V100V117V133V150V167V183V200V217V233V250V267V283V300H2394Z" fill="#00C4CA"/>
<path d="M2488 300L2471 283L2483 267L2511 250L2477 233L2488 217L2445 200L2513 183L2528 167L2474 150L2526 133L2525 117L2528 100L2501 83L2529 67L2450 50L2474 33L2522 17L2508 0H2560V17V33V50V67V83V100V117V133V150V167V183V200V217V233V250V267V283V300H2488Z" fill="#0AF5DD"/>
</g>
<defs>
<clipPath id="clip0_19_20">
<rect width="1280" height="300" fill="white"/>
</clipPath>
<clipPath id="clip1_19_20">
<rect width="1280" height="300" fill="white" transform="matrix(-1 0 0 -1 2560 300)"/>
</clipPath>
</defs>
</svg>
