<svg id="visual" viewBox="0 0 2560 400" width="2560" height="400" xmlns="http://www.w3.org/2000/svg" xmlns:xlink="http://www.w3.org/1999/xlink" version="1.1"><rect x="0" y="0" width="2560" height="400" fill="#021627"></rect><path d="M0 260L142 299L284 307L427 267L569 259L711 324L853 292L996 285L1138 260L1280 315L1422 306L1564 271L1707 295L1849 293L1991 294L2133 299L2276 319L2418 282L2560 310L2560 401L2418 401L2276 401L2133 401L1991 401L1849 401L1707 401L1564 401L1422 401L1280 401L1138 401L996 401L853 401L711 401L569 401L427 401L284 401L142 401L0 401Z" fill="#0af5dd"></path><path d="M0 317L142 319L284 280L427 323L569 280L711 309L853 276L996 306L1138 304L1280 324L1422 288L1564 300L1707 306L1849 324L1991 332L2133 306L2276 274L2418 319L2560 304L2560 401L2418 401L2276 401L2133 401L1991 401L1849 401L1707 401L1564 401L1422 401L1280 401L1138 401L996 401L853 401L711 401L569 401L427 401L284 401L142 401L0 401Z" fill="#00ccce"></path><path d="M0 320L142 306L284 319L427 307L569 332L711 297L853 304L996 309L1138 328L1280 334L1422 305L1564 329L1707 331L1849 297L1991 316L2133 319L2276 304L2418 316L2560 294L2560 401L2418 401L2276 401L2133 401L1991 401L1849 401L1707 401L1564 401L1422 401L1280 401L1138 401L996 401L853 401L711 401L569 401L427 401L284 401L142 401L0 401Z" fill="#00a3b6"></path><path d="M0 311L142 312L284 319L427 343L569 358L711 344L853 334L996 332L1138 354L1280 345L1422 327L1564 317L1707 334L1849 342L1991 343L2133 329L2276 353L2418 358L2560 319L2560 401L2418 401L2276 401L2133 401L1991 401L1849 401L1707 401L1564 401L1422 401L1280 401L1138 401L996 401L853 401L711 401L569 401L427 401L284 401L142 401L0 401Z" fill="#007c96"></path><path d="M0 358L142 351L284 363L427 353L569 337L711 350L853 368L996 369L1138 338L1280 342L1422 340L1564 353L1707 333L1849 356L1991 341L2133 350L2276 348L2418 348L2560 338L2560 401L2418 401L2276 401L2133 401L1991 401L1849 401L1707 401L1564 401L1422 401L1280 401L1138 401L996 401L853 401L711 401L569 401L427 401L284 401L142 401L0 401Z" fill="#065771"></path><path d="M0 356L142 367L284 380L427 376L569 369L711 356L853 379L996 348L1138 357L1280 348L1422 361L1564 363L1707 375L1849 381L1991 367L2133 356L2276 375L2418 349L2560 375L2560 401L2418 401L2276 401L2133 401L1991 401L1849 401L1707 401L1564 401L1422 401L1280 401L1138 401L996 401L853 401L711 401L569 401L427 401L284 401L142 401L0 401Z" fill="#07354c"></path><path d="M0 376L142 374L284 369L427 383L569 375L711 393L853 370L996 379L1138 371L1280 368L1422 381L1564 367L1707 373L1849 385L1991 371L2133 377L2276 373L2418 376L2560 387L2560 401L2418 401L2276 401L2133 401L1991 401L1849 401L1707 401L1564 401L1422 401L1280 401L1138 401L996 401L853 401L711 401L569 401L427 401L284 401L142 401L0 401Z" fill="#021627"></path></svg>