<svg id="visual" viewBox="0 0 2560 300" preserveAspectRatio="none" xmlns="http://www.w3.org/2000/svg" xmlns:xlink="http://www.w3.org/1999/xlink" version="1.1"><rect x="0" y="0" width="2560" height="300" fill="#010B13"></rect><path d="M0 182L151 152L301 196L452 152L602 180L753 156L904 186L1054 148L1205 189L1355 189L1506 148L1656 179L1807 191L1958 184L2108 182L2259 157L2409 148L2560 149L2560 301L2409 301L2259 301L2108 301L1958 301L1807 301L1656 301L1506 301L1355 301L1205 301L1054 301L904 301L753 301L602 301L452 301L301 301L151 301L0 301Z" fill="#00e0d5"></path><path d="M0 198L151 216L301 189L452 199L602 208L753 205L904 177L1054 210L1205 176L1355 204L1506 184L1656 169L1807 191L1958 193L2108 180L2259 217L2409 194L2560 194L2560 301L2409 301L2259 301L2108 301L1958 301L1807 301L1656 301L1506 301L1355 301L1205 301L1054 301L904 301L753 301L602 301L452 301L301 301L151 301L0 301Z" fill="#00bac3"></path><path d="M0 200L151 205L301 215L452 201L602 218L753 229L904 226L1054 225L1205 192L1355 193L1506 200L1656 218L1807 193L1958 223L2108 215L2259 198L2409 220L2560 198L2560 301L2409 301L2259 301L2108 301L1958 301L1807 301L1656 301L1506 301L1355 301L1205 301L1054 301L904 301L753 301L602 301L452 301L301 301L151 301L0 301Z" fill="#0096ab"></path><path d="M0 218L151 212L301 220L452 245L602 213L753 220L904 216L1054 237L1205 218L1355 243L1506 225L1656 243L1807 229L1958 208L2108 234L2259 221L2409 223L2560 207L2560 301L2409 301L2259 301L2108 301L1958 301L1807 301L1656 301L1506 301L1355 301L1205 301L1054 301L904 301L753 301L602 301L452 301L301 301L151 301L0 301Z" fill="#00728c"></path><path d="M0 230L151 231L301 232L452 246L602 255L753 254L904 245L1054 235L1205 228L1355 226L1506 242L1656 259L1807 253L1958 253L2108 242L2259 250L2409 257L2560 232L2560 301L2409 301L2259 301L2108 301L1958 301L1807 301L1656 301L1506 301L1355 301L1205 301L1054 301L904 301L753 301L602 301L452 301L301 301L151 301L0 301Z" fill="#06516b"></path><path d="M0 255L151 249L301 255L452 248L602 253L753 250L904 259L1054 261L1205 265L1355 260L1506 262L1656 271L1807 247L1958 270L2108 265L2259 266L2409 268L2560 248L2560 301L2409 301L2259 301L2108 301L1958 301L1807 301L1656 301L1506 301L1355 301L1205 301L1054 301L904 301L753 301L602 301L452 301L301 301L151 301L0 301Z" fill="#073248"></path><path d="M0 283L151 285L301 273L452 284L602 287L753 274L904 277L1054 269L1205 265L1355 284L1506 286L1656 271L1807 284L1958 284L2108 282L2259 265L2409 279L2560 282L2560 301L2409 301L2259 301L2108 301L1958 301L1807 301L1656 301L1506 301L1355 301L1205 301L1054 301L904 301L753 301L602 301L452 301L301 301L151 301L0 301Z" fill="#021627"></path></svg>