<svg id="visual" viewBox="0 0 2560 200" preserveAspectRatio="none" xmlns="http://www.w3.org/2000/svg" xmlns:xlink="http://www.w3.org/1999/xlink" version="1.1"><rect x="0" y="0" width="2560" height="200" fill="#010B13"></rect><path d="M0 161L111 132L223 144L334 162L445 131L557 144L668 134L779 145L890 136L1002 161L1113 135L1224 138L1336 157L1447 134L1558 152L1670 131L1781 140L1892 133L2003 161L2115 158L2226 155L2337 131L2449 148L2560 149L2560 201L2449 201L2337 201L2226 201L2115 201L2003 201L1892 201L1781 201L1670 201L1558 201L1447 201L1336 201L1224 201L1113 201L1002 201L890 201L779 201L668 201L557 201L445 201L334 201L223 201L111 201L0 201Z" fill="#00e0d5"></path><path d="M0 164L111 148L223 146L334 158L445 153L557 154L668 158L779 154L890 144L1002 154L1113 143L1224 161L1336 159L1447 165L1558 145L1670 154L1781 140L1892 141L2003 157L2115 147L2226 154L2337 161L2449 150L2560 165L2560 201L2449 201L2337 201L2226 201L2115 201L2003 201L1892 201L1781 201L1670 201L1558 201L1447 201L1336 201L1224 201L1113 201L1002 201L890 201L779 201L668 201L557 201L445 201L334 201L223 201L111 201L0 201Z" fill="#00bac3"></path><path d="M0 152L111 153L223 174L334 149L445 167L557 171L668 153L779 156L890 164L1002 171L1113 165L1224 160L1336 162L1447 148L1558 174L1670 156L1781 155L1892 173L2003 172L2115 171L2226 152L2337 159L2449 152L2560 172L2560 201L2449 201L2337 201L2226 201L2115 201L2003 201L1892 201L1781 201L1670 201L1558 201L1447 201L1336 201L1224 201L1113 201L1002 201L890 201L779 201L668 201L557 201L445 201L334 201L223 201L111 201L0 201Z" fill="#0096ab"></path><path d="M0 171L111 167L223 176L334 169L445 178L557 173L668 159L779 165L890 162L1002 157L1113 166L1224 179L1336 163L1447 167L1558 166L1670 162L1781 177L1892 175L2003 165L2115 168L2226 175L2337 173L2449 165L2560 178L2560 201L2449 201L2337 201L2226 201L2115 201L2003 201L1892 201L1781 201L1670 201L1558 201L1447 201L1336 201L1224 201L1113 201L1002 201L890 201L779 201L668 201L557 201L445 201L334 201L223 201L111 201L0 201Z" fill="#00728c"></path><path d="M0 169L111 169L223 183L334 172L445 184L557 183L668 172L779 167L890 171L1002 180L1113 178L1224 167L1336 177L1447 183L1558 184L1670 166L1781 178L1892 168L2003 169L2115 172L2226 171L2337 182L2449 168L2560 180L2560 201L2449 201L2337 201L2226 201L2115 201L2003 201L1892 201L1781 201L1670 201L1558 201L1447 201L1336 201L1224 201L1113 201L1002 201L890 201L779 201L668 201L557 201L445 201L334 201L223 201L111 201L0 201Z" fill="#06516b"></path><path d="M0 176L111 179L223 183L334 174L445 189L557 184L668 178L779 187L890 184L1002 180L1113 188L1224 180L1336 186L1447 179L1558 180L1670 187L1781 179L1892 176L2003 188L2115 180L2226 181L2337 180L2449 176L2560 185L2560 201L2449 201L2337 201L2226 201L2115 201L2003 201L1892 201L1781 201L1670 201L1558 201L1447 201L1336 201L1224 201L1113 201L1002 201L890 201L779 201L668 201L557 201L445 201L334 201L223 201L111 201L0 201Z" fill="#073248"></path><path d="M0 193L111 190L223 189L334 187L445 195L557 194L668 185L779 188L890 193L1002 185L1113 188L1224 185L1336 186L1447 188L1558 186L1670 188L1781 194L1892 194L2003 184L2115 186L2226 186L2337 187L2449 192L2560 186L2560 201L2449 201L2337 201L2226 201L2115 201L2003 201L1892 201L1781 201L1670 201L1558 201L1447 201L1336 201L1224 201L1113 201L1002 201L890 201L779 201L668 201L557 201L445 201L334 201L223 201L111 201L0 201Z" fill="#021627"></path></svg>