<svg id="visual" viewBox="0 0 2560 300" width="2560" height="300" xmlns="http://www.w3.org/2000/svg" xmlns:xlink="http://www.w3.org/1999/xlink" version="1.1"><rect x="0" y="0" width="2560" height="300" fill="#021627"></rect><path d="M0 142L142 186L284 195L427 150L569 141L711 214L853 179L996 171L1138 143L1280 205L1422 195L1564 155L1707 182L1849 180L1991 181L2133 187L2276 209L2418 167L2560 198L2560 301L2418 301L2276 301L2133 301L1991 301L1849 301L1707 301L1564 301L1422 301L1280 301L1138 301L996 301L853 301L711 301L569 301L427 301L284 301L142 301L0 301Z" fill="#0af5dd"></path><path d="M0 207L142 209L284 165L427 213L569 165L711 197L853 160L996 194L1138 192L1280 215L1422 174L1564 188L1707 194L1849 214L1991 224L2133 195L2276 159L2418 209L2560 192L2560 301L2418 301L2276 301L2133 301L1991 301L1849 301L1707 301L1564 301L1422 301L1280 301L1138 301L996 301L853 301L711 301L569 301L427 301L284 301L142 301L0 301Z" fill="#00ccce"></path><path d="M0 210L142 195L284 209L427 195L569 224L711 184L853 192L996 198L1138 219L1280 226L1422 193L1564 220L1707 222L1849 184L1991 205L2133 209L2276 192L2418 205L2560 180L2560 301L2418 301L2276 301L2133 301L1991 301L1849 301L1707 301L1564 301L1422 301L1280 301L1138 301L996 301L853 301L711 301L569 301L427 301L284 301L142 301L0 301Z" fill="#00a3b6"></path><path d="M0 200L142 202L284 209L427 235L569 253L711 238L853 226L996 224L1138 248L1280 238L1422 217L1564 207L1707 226L1849 235L1991 236L2133 221L2276 247L2418 253L2560 209L2560 301L2418 301L2276 301L2133 301L1991 301L1849 301L1707 301L1564 301L1422 301L1280 301L1138 301L996 301L853 301L711 301L569 301L427 301L284 301L142 301L0 301Z" fill="#007c96"></path><path d="M0 252L142 244L284 259L427 248L569 229L711 243L853 264L996 265L1138 230L1280 235L1422 233L1564 247L1707 225L1849 251L1991 234L2133 243L2276 241L2418 242L2560 230L2560 301L2418 301L2276 301L2133 301L1991 301L1849 301L1707 301L1564 301L1422 301L1280 301L1138 301L996 301L853 301L711 301L569 301L427 301L284 301L142 301L0 301Z" fill="#065771"></path><path d="M0 250L142 263L284 278L427 273L569 265L711 251L853 277L996 242L1138 252L1280 241L1422 257L1564 258L1707 272L1849 278L1991 263L2133 251L2276 272L2418 242L2560 272L2560 301L2418 301L2276 301L2133 301L1991 301L1849 301L1707 301L1564 301L1422 301L1280 301L1138 301L996 301L853 301L711 301L569 301L427 301L284 301L142 301L0 301Z" fill="#07354c"></path><path d="M0 273L142 271L284 265L427 281L569 272L711 292L853 266L996 277L1138 267L1280 264L1422 278L1564 263L1707 270L1849 283L1991 267L2133 275L2276 269L2418 273L2560 285L2560 301L2418 301L2276 301L2133 301L1991 301L1849 301L1707 301L1564 301L1422 301L1280 301L1138 301L996 301L853 301L711 301L569 301L427 301L284 301L142 301L0 301Z" fill="#021627"></path></svg>