<svg id="visual" viewBox="0 0 960 540" width="960" height="540" xmlns="http://www.w3.org/2000/svg" xmlns:xlink="http://www.w3.org/1999/xlink" version="1.1"><g stroke-width="1" stroke-linejoin="bevel"><path d="M462 280L500 279L453 241Z" fill="#00879f" stroke="#00879f"></path><path d="M500 279L488 219L453 241Z" fill="#00c9cb" stroke="#00c9cb"></path><path d="M577 200L503 198L488 219Z" fill="#045e78" stroke="#045e78"></path><path d="M443 159L405 217L453 241Z" fill="#074a64" stroke="#074a64"></path><path d="M443 159L453 241L488 219Z" fill="#00c9cb" stroke="#00c9cb"></path><path d="M453 241L373 281L462 280Z" fill="#00e0d5" stroke="#00e0d5"></path><path d="M447 354L503 345L462 280Z" fill="#07384f" stroke="#07384f"></path><path d="M462 280L503 345L500 279Z" fill="#021627" stroke="#021627"></path><path d="M500 279L577 200L488 219Z" fill="#00879f" stroke="#00879f"></path><path d="M503 345L567 310L500 279Z" fill="#009db0" stroke="#009db0"></path><path d="M503 198L443 159L488 219Z" fill="#00879f" stroke="#00879f"></path><path d="M373 281L447 354L462 280Z" fill="#00c9cb" stroke="#00c9cb"></path><path d="M405 217L373 281L453 241Z" fill="#009db0" stroke="#009db0"></path><path d="M598 225L577 200L500 279Z" fill="#00e0d5" stroke="#00e0d5"></path><path d="M503 198L526 130L443 159Z" fill="#00879f" stroke="#00879f"></path><path d="M443 159L397 175L405 217Z" fill="#045e78" stroke="#045e78"></path><path d="M405 217L311 234L373 281Z" fill="#00879f" stroke="#00879f"></path><path d="M567 310L598 225L500 279Z" fill="#009db0" stroke="#009db0"></path><path d="M509 413L555 354L503 345Z" fill="#074a64" stroke="#074a64"></path><path d="M503 345L555 354L567 310Z" fill="#00b3bf" stroke="#00b3bf"></path><path d="M653 243L619 183L598 225Z" fill="#045e78" stroke="#045e78"></path><path d="M594 135L526 130L577 200Z" fill="#00c9cb" stroke="#00c9cb"></path><path d="M577 200L526 130L503 198Z" fill="#07384f" stroke="#07384f"></path><path d="M443 159L442 124L397 175Z" fill="#00b3bf" stroke="#00b3bf"></path><path d="M373 281L400 362L447 354Z" fill="#05263b" stroke="#05263b"></path><path d="M447 354L509 413L503 345Z" fill="#074a64" stroke="#074a64"></path><path d="M526 130L442 124L443 159Z" fill="#009db0" stroke="#009db0"></path><path d="M634 315L598 225L567 310Z" fill="#074a64" stroke="#074a64"></path><path d="M598 225L619 183L577 200Z" fill="#045e78" stroke="#045e78"></path><path d="M311 234L330 302L373 281Z" fill="#00b3bf" stroke="#00b3bf"></path><path d="M373 281L330 302L400 362Z" fill="#00879f" stroke="#00879f"></path><path d="M442 415L509 413L447 354Z" fill="#05263b" stroke="#05263b"></path><path d="M382 438L442 415L400 362Z" fill="#00c9cb" stroke="#00c9cb"></path><path d="M400 362L442 415L447 354Z" fill="#045e78" stroke="#045e78"></path><path d="M640 337L567 310L555 354Z" fill="#00c9cb" stroke="#00c9cb"></path><path d="M640 337L634 315L567 310Z" fill="#00e0d5" stroke="#00e0d5"></path><path d="M619 183L594 135L577 200Z" fill="#021627" stroke="#021627"></path><path d="M307 193L405 217L397 175Z" fill="#00728c" stroke="#00728c"></path><path d="M307 193L311 234L405 217Z" fill="#07384f" stroke="#07384f"></path><path d="M634 315L653 243L598 225Z" fill="#00b3bf" stroke="#00b3bf"></path><path d="M619 183L624 139L594 135Z" fill="#00e0d5" stroke="#00e0d5"></path><path d="M563 443L640 337L555 354Z" fill="#009db0" stroke="#009db0"></path><path d="M634 315L692 248L653 243Z" fill="#045e78" stroke="#045e78"></path><path d="M393 65L387 97L442 124Z" fill="#07384f" stroke="#07384f"></path><path d="M442 124L387 97L397 175Z" fill="#00728c" stroke="#00728c"></path><path d="M496 54L442 124L526 130Z" fill="#009db0" stroke="#009db0"></path><path d="M311 109L307 193L397 175Z" fill="#074a64" stroke="#074a64"></path><path d="M717 164L624 139L619 183Z" fill="#00879f" stroke="#00879f"></path><path d="M582 78L496 54L526 130Z" fill="#00728c" stroke="#00728c"></path><path d="M253 276L311 364L330 302Z" fill="#074a64" stroke="#074a64"></path><path d="M330 302L311 364L400 362Z" fill="#07384f" stroke="#07384f"></path><path d="M253 276L330 302L311 234Z" fill="#009db0" stroke="#009db0"></path><path d="M582 78L526 130L594 135Z" fill="#07384f" stroke="#07384f"></path><path d="M639 78L582 78L594 135Z" fill="#00879f" stroke="#00879f"></path><path d="M503 493L563 443L509 413Z" fill="#045e78" stroke="#045e78"></path><path d="M509 413L563 443L555 354Z" fill="#05263b" stroke="#05263b"></path><path d="M311 364L382 438L400 362Z" fill="#00879f" stroke="#00879f"></path><path d="M442 415L462 485L509 413Z" fill="#00c9cb" stroke="#00c9cb"></path><path d="M441 47L393 65L442 124Z" fill="#00c9cb" stroke="#00c9cb"></path><path d="M387 97L311 109L397 175Z" fill="#00879f" stroke="#00879f"></path><path d="M709 311L692 248L634 315Z" fill="#00e0d5" stroke="#00e0d5"></path><path d="M653 243L717 164L619 183Z" fill="#021627" stroke="#021627"></path><path d="M496 54L441 47L442 124Z" fill="#00c9cb" stroke="#00c9cb"></path><path d="M307 57L311 109L387 97Z" fill="#00e0d5" stroke="#00e0d5"></path><path d="M247 195L311 234L307 193Z" fill="#00879f" stroke="#00879f"></path><path d="M239 237L253 276L311 234Z" fill="#00e0d5" stroke="#00e0d5"></path><path d="M407 496L462 485L442 415Z" fill="#074a64" stroke="#074a64"></path><path d="M727 379L709 311L640 337Z" fill="#07384f" stroke="#07384f"></path><path d="M640 337L709 311L634 315Z" fill="#00e0d5" stroke="#00e0d5"></path><path d="M253 276L279 378L311 364Z" fill="#009db0" stroke="#009db0"></path><path d="M311 364L311 439L382 438Z" fill="#074a64" stroke="#074a64"></path><path d="M382 438L407 496L442 415Z" fill="#045e78" stroke="#045e78"></path><path d="M624 139L639 78L594 135Z" fill="#05263b" stroke="#05263b"></path><path d="M572 0L495 0L496 54Z" fill="#05263b" stroke="#05263b"></path><path d="M703 75L639 78L624 139Z" fill="#05263b" stroke="#05263b"></path><path d="M462 485L503 493L509 413Z" fill="#009db0" stroke="#009db0"></path><path d="M244 111L247 195L307 193Z" fill="#00c9cb" stroke="#00c9cb"></path><path d="M247 195L239 237L311 234Z" fill="#00c9cb" stroke="#00c9cb"></path><path d="M242 433L276 456L279 378Z" fill="#00c9cb" stroke="#00c9cb"></path><path d="M503 493L555 486L563 443Z" fill="#00e0d5" stroke="#00e0d5"></path><path d="M563 443L661 433L640 337Z" fill="#00b3bf" stroke="#00b3bf"></path><path d="M279 378L311 439L311 364Z" fill="#009db0" stroke="#009db0"></path><path d="M311 500L407 496L382 438Z" fill="#07384f" stroke="#07384f"></path><path d="M462 485L497 540L503 493Z" fill="#00879f" stroke="#00879f"></path><path d="M632 474L661 433L563 443Z" fill="#045e78" stroke="#045e78"></path><path d="M746 188L717 164L692 248Z" fill="#00e0d5" stroke="#00e0d5"></path><path d="M692 248L717 164L653 243Z" fill="#00c9cb" stroke="#00c9cb"></path><path d="M572 0L496 54L582 78Z" fill="#00b3bf" stroke="#00b3bf"></path><path d="M496 54L458 0L441 47Z" fill="#00e0d5" stroke="#00e0d5"></path><path d="M441 47L373 0L393 65Z" fill="#009db0" stroke="#009db0"></path><path d="M393 65L307 57L387 97Z" fill="#00e0d5" stroke="#00e0d5"></path><path d="M495 0L458 0L496 54Z" fill="#05263b" stroke="#05263b"></path><path d="M333 0L307 57L393 65Z" fill="#00b3bf" stroke="#00b3bf"></path><path d="M311 109L244 111L307 193Z" fill="#05263b" stroke="#05263b"></path><path d="M555 486L632 474L563 443Z" fill="#00b3bf" stroke="#00b3bf"></path><path d="M746 188L725 141L717 164Z" fill="#045e78" stroke="#045e78"></path><path d="M717 164L725 141L624 139Z" fill="#00e0d5" stroke="#00e0d5"></path><path d="M622 0L582 78L639 78Z" fill="#00879f" stroke="#00879f"></path><path d="M622 0L572 0L582 78Z" fill="#00879f" stroke="#00879f"></path><path d="M788 263L746 188L692 248Z" fill="#00b3bf" stroke="#00b3bf"></path><path d="M712 408L727 379L640 337Z" fill="#00b3bf" stroke="#00b3bf"></path><path d="M709 311L788 263L692 248Z" fill="#021627" stroke="#021627"></path><path d="M712 408L640 337L661 433Z" fill="#07384f" stroke="#07384f"></path><path d="M458 0L373 0L441 47Z" fill="#05263b" stroke="#05263b"></path><path d="M255 68L311 109L307 57Z" fill="#00879f" stroke="#00879f"></path><path d="M255 68L244 111L311 109Z" fill="#00728c" stroke="#00728c"></path><path d="M172 239L178 293L239 237Z" fill="#00728c" stroke="#00728c"></path><path d="M704 500L712 408L661 433Z" fill="#00c9cb" stroke="#00c9cb"></path><path d="M440 540L497 540L462 485Z" fill="#00b3bf" stroke="#00b3bf"></path><path d="M503 493L560 540L555 486Z" fill="#00e0d5" stroke="#00e0d5"></path><path d="M555 486L560 540L632 474Z" fill="#021627" stroke="#021627"></path><path d="M770 424L750 349L727 379Z" fill="#021627" stroke="#021627"></path><path d="M727 379L750 349L709 311Z" fill="#021627" stroke="#021627"></path><path d="M773 133L703 75L725 141Z" fill="#00b3bf" stroke="#00b3bf"></path><path d="M725 141L703 75L624 139Z" fill="#009db0" stroke="#009db0"></path><path d="M279 378L276 456L311 439Z" fill="#021627" stroke="#021627"></path><path d="M311 439L311 500L382 438Z" fill="#00728c" stroke="#00728c"></path><path d="M407 496L440 540L462 485Z" fill="#07384f" stroke="#07384f"></path><path d="M242 433L279 378L201 415Z" fill="#00c9cb" stroke="#00c9cb"></path><path d="M373 540L440 540L407 496Z" fill="#009db0" stroke="#009db0"></path><path d="M703 75L622 0L639 78Z" fill="#00728c" stroke="#00728c"></path><path d="M277 0L255 68L307 57Z" fill="#00e0d5" stroke="#00e0d5"></path><path d="M373 0L333 0L393 65Z" fill="#05263b" stroke="#05263b"></path><path d="M497 540L560 540L503 493Z" fill="#045e78" stroke="#045e78"></path><path d="M632 474L704 500L661 433Z" fill="#021627" stroke="#021627"></path><path d="M178 293L279 378L253 276Z" fill="#021627" stroke="#021627"></path><path d="M278 540L311 500L276 456Z" fill="#00e0d5" stroke="#00e0d5"></path><path d="M276 456L311 500L311 439Z" fill="#00728c" stroke="#00728c"></path><path d="M750 349L781 300L709 311Z" fill="#074a64" stroke="#074a64"></path><path d="M311 500L373 540L407 496Z" fill="#045e78" stroke="#045e78"></path><path d="M172 239L239 237L175 203Z" fill="#07384f" stroke="#07384f"></path><path d="M239 237L178 293L253 276Z" fill="#009db0" stroke="#009db0"></path><path d="M239 237L247 195L175 203Z" fill="#074a64" stroke="#074a64"></path><path d="M781 300L788 263L709 311Z" fill="#00c9cb" stroke="#00c9cb"></path><path d="M746 188L773 133L725 141Z" fill="#00b3bf" stroke="#00b3bf"></path><path d="M175 203L247 195L173 136Z" fill="#07384f" stroke="#07384f"></path><path d="M173 136L247 195L244 111Z" fill="#00b3bf" stroke="#00b3bf"></path><path d="M311 500L342 540L373 540Z" fill="#00c9cb" stroke="#00c9cb"></path><path d="M278 540L342 540L311 500Z" fill="#00879f" stroke="#00879f"></path><path d="M835 164L773 133L746 188Z" fill="#074a64" stroke="#074a64"></path><path d="M703 75L720 0L622 0Z" fill="#07384f" stroke="#07384f"></path><path d="M169 380L201 415L279 378Z" fill="#074a64" stroke="#074a64"></path><path d="M205 540L278 540L276 456Z" fill="#00e0d5" stroke="#00e0d5"></path><path d="M333 0L277 0L307 57Z" fill="#00728c" stroke="#00728c"></path><path d="M192 82L173 136L244 111Z" fill="#05263b" stroke="#05263b"></path><path d="M192 82L244 111L255 68Z" fill="#00e0d5" stroke="#00e0d5"></path><path d="M175 203L147 228L172 239Z" fill="#00c9cb" stroke="#00c9cb"></path><path d="M560 540L648 540L632 474Z" fill="#00e0d5" stroke="#00e0d5"></path><path d="M712 408L770 424L727 379Z" fill="#00b3bf" stroke="#00b3bf"></path><path d="M851 382L819 286L781 300Z" fill="#021627" stroke="#021627"></path><path d="M648 540L704 500L632 474Z" fill="#00e0d5" stroke="#00e0d5"></path><path d="M105 172L147 228L175 203Z" fill="#021627" stroke="#021627"></path><path d="M172 239L123 303L178 293Z" fill="#07384f" stroke="#07384f"></path><path d="M178 293L169 380L279 378Z" fill="#07384f" stroke="#07384f"></path><path d="M704 500L770 424L712 408Z" fill="#009db0" stroke="#009db0"></path><path d="M781 300L819 286L788 263Z" fill="#074a64" stroke="#074a64"></path><path d="M123 303L169 380L178 293Z" fill="#00b3bf" stroke="#00b3bf"></path><path d="M182 0L192 82L255 68Z" fill="#00e0d5" stroke="#00e0d5"></path><path d="M851 382L781 300L750 349Z" fill="#00b3bf" stroke="#00b3bf"></path><path d="M788 263L838 217L746 188Z" fill="#05263b" stroke="#05263b"></path><path d="M809 66L746 36L773 133Z" fill="#045e78" stroke="#045e78"></path><path d="M773 133L746 36L703 75Z" fill="#00c9cb" stroke="#00c9cb"></path><path d="M174 461L242 433L201 415Z" fill="#00728c" stroke="#00728c"></path><path d="M205 540L276 456L242 433Z" fill="#00b3bf" stroke="#00b3bf"></path><path d="M746 36L720 0L703 75Z" fill="#05263b" stroke="#05263b"></path><path d="M648 540L696 540L704 500Z" fill="#021627" stroke="#021627"></path><path d="M704 500L771 494L770 424Z" fill="#07384f" stroke="#07384f"></path><path d="M819 286L838 217L788 263Z" fill="#00b3bf" stroke="#00b3bf"></path><path d="M147 228L123 303L172 239Z" fill="#021627" stroke="#021627"></path><path d="M56 217L123 303L147 228Z" fill="#05263b" stroke="#05263b"></path><path d="M838 217L835 164L746 188Z" fill="#05263b" stroke="#05263b"></path><path d="M835 164L830 139L773 133Z" fill="#021627" stroke="#021627"></path><path d="M746 36L789 0L720 0Z" fill="#00728c" stroke="#00728c"></path><path d="M169 380L174 461L201 415Z" fill="#00e0d5" stroke="#00e0d5"></path><path d="M106 403L174 461L169 380Z" fill="#00b3bf" stroke="#00b3bf"></path><path d="M750 540L771 494L704 500Z" fill="#00b3bf" stroke="#00b3bf"></path><path d="M770 424L822 424L750 349Z" fill="#021627" stroke="#021627"></path><path d="M914 234L879 181L838 217Z" fill="#00728c" stroke="#00728c"></path><path d="M192 82L133 105L173 136Z" fill="#05263b" stroke="#05263b"></path><path d="M173 136L105 172L175 203Z" fill="#00e0d5" stroke="#00e0d5"></path><path d="M109 83L133 105L192 82Z" fill="#009db0" stroke="#009db0"></path><path d="M830 139L809 66L773 133Z" fill="#07384f" stroke="#07384f"></path><path d="M832 475L822 424L770 424Z" fill="#021627" stroke="#021627"></path><path d="M133 105L105 172L173 136Z" fill="#00879f" stroke="#00879f"></path><path d="M822 424L851 382L750 349Z" fill="#021627" stroke="#021627"></path><path d="M838 217L879 181L835 164Z" fill="#00879f" stroke="#00879f"></path><path d="M696 540L750 540L704 500Z" fill="#009db0" stroke="#009db0"></path><path d="M771 494L832 475L770 424Z" fill="#045e78" stroke="#045e78"></path><path d="M822 424L919 403L851 382Z" fill="#00879f" stroke="#00879f"></path><path d="M57 336L109 382L123 303Z" fill="#05263b" stroke="#05263b"></path><path d="M123 303L109 382L169 380Z" fill="#074a64" stroke="#074a64"></path><path d="M277 0L182 0L255 68Z" fill="#009db0" stroke="#009db0"></path><path d="M111 540L205 540L174 461Z" fill="#009db0" stroke="#009db0"></path><path d="M174 461L205 540L242 433Z" fill="#00728c" stroke="#00728c"></path><path d="M809 66L789 0L746 36Z" fill="#00728c" stroke="#00728c"></path><path d="M56 430L106 403L109 382Z" fill="#021627" stroke="#021627"></path><path d="M109 382L106 403L169 380Z" fill="#074a64" stroke="#074a64"></path><path d="M830 139L877 72L809 66Z" fill="#045e78" stroke="#045e78"></path><path d="M809 66L851 0L789 0Z" fill="#021627" stroke="#021627"></path><path d="M835 164L879 181L830 139Z" fill="#045e78" stroke="#045e78"></path><path d="M894 301L838 217L819 286Z" fill="#05263b" stroke="#05263b"></path><path d="M124 0L109 83L192 82Z" fill="#07384f" stroke="#07384f"></path><path d="M62 109L78 171L105 172Z" fill="#05263b" stroke="#05263b"></path><path d="M62 109L105 172L133 105Z" fill="#00728c" stroke="#00728c"></path><path d="M105 172L56 217L147 228Z" fill="#07384f" stroke="#07384f"></path><path d="M831 540L832 475L771 494Z" fill="#00b3bf" stroke="#00b3bf"></path><path d="M906 348L894 301L851 382Z" fill="#05263b" stroke="#05263b"></path><path d="M851 382L894 301L819 286Z" fill="#00728c" stroke="#00728c"></path><path d="M0 203L56 217L78 171Z" fill="#07384f" stroke="#07384f"></path><path d="M78 171L56 217L105 172Z" fill="#074a64" stroke="#074a64"></path><path d="M106 403L114 475L174 461Z" fill="#045e78" stroke="#045e78"></path><path d="M56 430L114 475L106 403Z" fill="#00728c" stroke="#00728c"></path><path d="M49 311L57 336L123 303Z" fill="#00c9cb" stroke="#00c9cb"></path><path d="M894 301L914 234L838 217Z" fill="#00b3bf" stroke="#00b3bf"></path><path d="M905 96L877 72L830 139Z" fill="#05263b" stroke="#05263b"></path><path d="M56 217L49 311L123 303Z" fill="#074a64" stroke="#074a64"></path><path d="M919 403L906 348L851 382Z" fill="#00879f" stroke="#00879f"></path><path d="M960 305L960 216L914 234Z" fill="#00879f" stroke="#00879f"></path><path d="M905 96L830 139L879 181Z" fill="#074a64" stroke="#074a64"></path><path d="M182 0L124 0L192 82Z" fill="#00879f" stroke="#00879f"></path><path d="M109 83L62 109L133 105Z" fill="#009db0" stroke="#009db0"></path><path d="M52 63L62 109L109 83Z" fill="#00c9cb" stroke="#00c9cb"></path><path d="M56 217L0 263L49 311Z" fill="#021627" stroke="#021627"></path><path d="M877 72L851 0L809 66Z" fill="#00e0d5" stroke="#00e0d5"></path><path d="M750 540L831 540L771 494Z" fill="#021627" stroke="#021627"></path><path d="M899 478L919 403L822 424Z" fill="#07384f" stroke="#07384f"></path><path d="M960 116L905 96L879 181Z" fill="#00e0d5" stroke="#00e0d5"></path><path d="M877 72L913 0L851 0Z" fill="#00879f" stroke="#00879f"></path><path d="M0 397L56 430L57 336Z" fill="#009db0" stroke="#009db0"></path><path d="M57 336L56 430L109 382Z" fill="#00879f" stroke="#00879f"></path><path d="M899 478L822 424L832 475Z" fill="#00e0d5" stroke="#00e0d5"></path><path d="M960 305L914 234L894 301Z" fill="#00879f" stroke="#00879f"></path><path d="M71 540L111 540L114 475Z" fill="#00b3bf" stroke="#00b3bf"></path><path d="M114 475L111 540L174 461Z" fill="#00e0d5" stroke="#00e0d5"></path><path d="M124 0L52 63L109 83Z" fill="#07384f" stroke="#07384f"></path><path d="M0 203L0 263L56 217Z" fill="#00b3bf" stroke="#00b3bf"></path><path d="M883 540L899 478L832 475Z" fill="#00879f" stroke="#00879f"></path><path d="M49 311L0 322L57 336Z" fill="#074a64" stroke="#074a64"></path><path d="M0 203L78 171L0 142Z" fill="#05263b" stroke="#05263b"></path><path d="M960 305L894 301L906 348Z" fill="#009db0" stroke="#009db0"></path><path d="M914 234L960 187L879 181Z" fill="#00b3bf" stroke="#00b3bf"></path><path d="M960 353L960 305L906 348Z" fill="#00879f" stroke="#00879f"></path><path d="M960 353L906 348L919 403Z" fill="#00c9cb" stroke="#00c9cb"></path><path d="M0 142L78 171L62 109Z" fill="#00879f" stroke="#00879f"></path><path d="M960 216L960 187L914 234Z" fill="#074a64" stroke="#074a64"></path><path d="M960 79L913 0L877 72Z" fill="#07384f" stroke="#07384f"></path><path d="M0 263L0 322L49 311Z" fill="#00728c" stroke="#00728c"></path><path d="M45 503L71 540L114 475Z" fill="#045e78" stroke="#045e78"></path><path d="M0 322L0 342L57 336Z" fill="#021627" stroke="#021627"></path><path d="M960 426L960 353L919 403Z" fill="#00e0d5" stroke="#00e0d5"></path><path d="M831 540L883 540L832 475Z" fill="#05263b" stroke="#05263b"></path><path d="M899 478L960 426L919 403Z" fill="#07384f" stroke="#07384f"></path><path d="M0 61L0 142L62 109Z" fill="#00c9cb" stroke="#00c9cb"></path><path d="M45 503L114 475L56 430Z" fill="#00728c" stroke="#00728c"></path><path d="M960 187L960 116L879 181Z" fill="#00c9cb" stroke="#00c9cb"></path><path d="M0 342L0 397L57 336Z" fill="#021627" stroke="#021627"></path><path d="M0 474L45 503L56 430Z" fill="#07384f" stroke="#07384f"></path><path d="M960 79L877 72L905 96Z" fill="#045e78" stroke="#045e78"></path><path d="M124 0L45 0L52 63Z" fill="#045e78" stroke="#045e78"></path><path d="M52 63L0 61L62 109Z" fill="#00c9cb" stroke="#00c9cb"></path><path d="M960 500L960 426L899 478Z" fill="#07384f" stroke="#07384f"></path><path d="M960 116L960 79L905 96Z" fill="#00728c" stroke="#00728c"></path><path d="M45 0L0 61L52 63Z" fill="#00879f" stroke="#00879f"></path><path d="M0 397L0 474L56 430Z" fill="#00c9cb" stroke="#00c9cb"></path><path d="M45 503L0 540L71 540Z" fill="#00b3bf" stroke="#00b3bf"></path><path d="M883 540L960 500L899 478Z" fill="#00728c" stroke="#00728c"></path><path d="M960 79L960 0L913 0Z" fill="#074a64" stroke="#074a64"></path><path d="M45 0L0 0L0 61Z" fill="#07384f" stroke="#07384f"></path><path d="M883 540L960 540L960 500Z" fill="#05263b" stroke="#05263b"></path><path d="M0 474L0 540L45 503Z" fill="#05263b" stroke="#05263b"></path></g></svg>