<svg id="visual" viewBox="0 0 1280 300" width="1280" height="300" xmlns="http://www.w3.org/2000/svg" xmlns:xlink="http://www.w3.org/1999/xlink" version="1.1"><rect x="0" y="0" width="1280" height="300" fill="#021627"></rect><path d="M236 0L396 17L406 33L231 50L427 67L390 83L396 100L413 117L413 133L237 150L241 167L370 183L272 200L298 217L225 233L238 250L405 267L324 283L321 300L0 300L0 283L0 267L0 250L0 233L0 217L0 200L0 183L0 167L0 150L0 133L0 117L0 100L0 83L0 67L0 50L0 33L0 17L0 0Z" fill="#021627"></path><path d="M247 0L296 17L241 33L374 50L220 67L299 83L323 100L337 117L233 133L304 150L225 167L219 183L273 200L305 217L278 233L237 250L261 267L286 283L341 300L0 300L0 283L0 267L0 250L0 233L0 217L0 200L0 183L0 167L0 150L0 133L0 117L0 100L0 83L0 67L0 50L0 33L0 17L0 0Z" fill="#083b53"></path><path d="M220 0L198 17L183 33L247 50L236 67L176 83L223 100L157 117L289 133L210 150L197 167L164 183L207 200L193 217L303 233L150 250L264 267L297 283L305 300L0 300L0 283L0 267L0 250L0 233L0 217L0 200L0 183L0 167L0 150L0 133L0 117L0 100L0 83L0 67L0 50L0 33L0 17L0 0Z" fill="#046580"></path><path d="M214 0L149 17L202 33L241 50L157 67L185 83L138 100L132 117L215 133L182 150L156 167L153 183L232 200L112 217L214 233L134 250L144 267L193 283L195 300L0 300L0 283L0 267L0 250L0 233L0 217L0 200L0 183L0 167L0 150L0 133L0 117L0 100L0 83L0 67L0 50L0 33L0 17L0 0Z" fill="#0093aa"></path><path d="M166 0L72 17L114 33L153 50L122 67L124 83L119 100L134 117L163 133L110 150L150 167L100 183L159 200L93 217L106 233L126 250L97 267L171 283L111 300L0 300L0 283L0 267L0 250L0 233L0 217L0 200L0 183L0 167L0 150L0 133L0 117L0 100L0 83L0 67L0 50L0 33L0 17L0 0Z" fill="#00c4ca"></path><path d="M72 0L89 17L77 33L49 50L83 67L72 83L115 100L47 117L32 133L86 150L34 167L35 183L32 200L59 217L31 233L110 250L86 267L38 283L52 300L0 300L0 283L0 267L0 250L0 233L0 217L0 200L0 183L0 167L0 150L0 133L0 117L0 100L0 83L0 67L0 50L0 33L0 17L0 0Z" fill="#0af5dd"></path></svg>